<?xml version="1.0" encoding="utf-8"?>
<svg xmlns="http://www.w3.org/2000/svg"
	xmlns:xlink="http://www.w3.org/1999/xlink"
	width="21px" height="12px" viewBox="0 0 21 12">
<filter filterUnits="objectBoundingBox" x="0.00" y="0.00" width="100.00" height="100.00" id="filter0">
<feFlood flood-color="rgb(142,141,141)" result="coFloodOut1"/>
<feComposite in="coFloodOut1" in2="SourceAlpha" operator="in" result="coOverlay1"/>
<feBlend in="coOverlay1" in2="SourceGraphic" mode="normal" result="colorOverlay1"/>
</filter>
<path fillRule="evenodd" d="M 17.97 5.19C 17.97 5.19 17.97 3 17.97 3 17.97 3 16.4 3 16.4 3 16.4 3 16.4 5.19 16.4 5.19 16.4 5.19 14.15 5.19 14.15 5.19 14.15 5.19 14.15 6.75 14.15 6.75 14.15 6.75 16.4 6.75 16.4 6.75 16.4 6.75 16.4 9 16.4 9 16.4 9 17.97 9 17.97 9 17.97 9 17.97 6.75 17.97 6.75 17.97 6.75 20.16 6.75 20.16 6.75 20.16 6.75 20.16 5.19 20.16 5.19 20.16 5.19 17.97 5.19 17.97 5.19ZM 6.5 4.81C 6.5 4.81 6.5 7.19 6.5 7.19 6.5 7.19 8.94 7.18 9.94 7.18 9.4 8.72 8.56 9.56 6.5 9.56 4.42 9.56 2.79 7.97 2.79 6 2.79 4.03 4.42 2.44 6.5 2.44 7.61 2.44 8.32 2.8 8.97 3.31 9.49 2.82 9.45 2.75 10.78 1.56 9.65 0.59 8.15-0 6.51-0 3-0 0.15 2.69 0.15 6 0.15 9.31 3 12 6.51 12 11.75 12 13.03 7.69 12.6 4.81 12.6 4.81 6.5 4.81 6.5 4.81Z" fill="rgb(255,255,255)" filter="url(#filter0)"/></svg>