<?xml version="1.0" encoding="utf-8"?>
<svg xmlns="http://www.w3.org/2000/svg"
	xmlns:xlink="http://www.w3.org/1999/xlink"
	width="16px" height="16px" viewBox="0 0 16 16">
<filter filterUnits="objectBoundingBox" x="0.00" y="0.00" width="100.00" height="100.00" id="filter0">
<feFlood flood-color="rgb(142,141,141)" result="coFloodOut1"/>
<feComposite in="coFloodOut1" in2="SourceAlpha" operator="in" result="coOverlay1"/>
<feBlend in="coOverlay1" in2="SourceGraphic" mode="normal" result="colorOverlay1"/>
</filter>
<path fillRule="evenodd" d="M 8 10C 6.9 10 6 9.11 6 8 6 6.9 6.89 6 8 6 9.11 6 10 6.89 10 8 10 9.1 9.1 10 8 10ZM 8 4C 5.79 4 4 5.79 4 8 4 10.21 5.79 12 8 12 10.21 12 12 10.21 12 8 12 5.79 10.21 4 8 4ZM 12 5C 12.55 5 13 4.55 13 4 13 3.45 12.55 3 12 3 11.45 3 11 3.45 11 4 11 4.55 11.45 5 12 5ZM 13.95 10.95C 13.92 11.67 13.8 12.06 13.7 12.31 13.57 12.65 13.41 12.9 13.15 13.15 12.9 13.41 12.65 13.56 12.31 13.7 12.05 13.8 11.67 13.92 10.95 13.95 10.18 13.99 9.95 14 8 14 6.04 14 5.81 13.99 5.04 13.95 4.33 13.92 3.94 13.8 3.69 13.7 3.35 13.57 3.1 13.41 2.85 13.15 2.59 12.9 2.43 12.65 2.3 12.31 2.2 12.05 2.08 11.67 2.04 10.95 2.01 10.18 2 9.95 2 8 2 6.05 2 5.81 2.04 5.04 2.08 4.33 2.2 3.94 2.3 3.69 2.43 3.35 2.59 3.1 2.85 2.85 3.1 2.59 3.34 2.43 3.69 2.3 3.95 2.2 4.33 2.08 5.04 2.04 5.82 2.01 6.05 2 8 2 9.95 2 10.19 2 10.95 2.04 11.67 2.08 12.06 2.2 12.31 2.3 12.65 2.43 12.9 2.59 13.15 2.85 13.41 3.1 13.56 3.34 13.7 3.69 13.8 3.95 13.92 4.33 13.95 5.04 13.99 5.82 14 6.05 14 8 14 9.95 13.99 10.19 13.95 10.95ZM 15.58 2.76C 15.38 2.23 15.1 1.79 14.66 1.34 14.21 0.89 13.77 0.62 13.24 0.42 12.74 0.22 12.15 0.08 11.3 0.05 10.45 0.01 10.18-0 8-0 5.82-0 5.55 0 4.7 0.05 3.84 0.08 3.26 0.22 2.76 0.42 2.23 0.62 1.78 0.89 1.34 1.34 0.89 1.79 0.62 2.23 0.42 2.76 0.22 3.26 0.08 3.85 0.05 4.7 0.01 5.55-0 5.82-0 8-0 10.17 0 10.45 0.05 11.3 0.08 12.15 0.22 12.73 0.42 13.24 0.62 13.77 0.89 14.21 1.34 14.66 1.78 15.1 2.23 15.37 2.76 15.58 3.26 15.78 3.85 15.91 4.7 15.95 5.55 15.99 5.82 16 8 16 10.18 16 10.45 15.99 11.3 15.95 12.15 15.91 12.74 15.78 13.24 15.58 13.77 15.37 14.21 15.1 14.66 14.66 15.1 14.21 15.38 13.77 15.58 13.24 15.78 12.73 15.91 12.15 15.95 11.3 15.99 10.45 16 10.17 16 8 16 5.82 15.99 5.55 15.95 4.7 15.91 3.84 15.78 3.26 15.58 2.76Z" fill="rgb(255,255,255)" filter="url(#filter0)"/></svg>