<?xml version="1.0" encoding="utf-8"?>
<svg xmlns="http://www.w3.org/2000/svg"
	xmlns:xlink="http://www.w3.org/1999/xlink"
	width="16px" height="13px" viewBox="0 0 16 13">
<filter filterUnits="objectBoundingBox" x="0.00" y="0.00" width="100.00" height="100.00" id="filter0">
<feFlood flood-color="rgb(142,141,141)" result="coFloodOut1"/>
<feComposite in="coFloodOut1" in2="SourceAlpha" operator="in" result="coOverlay1"/>
<feBlend in="coOverlay1" in2="SourceGraphic" mode="normal" result="colorOverlay1"/>
</filter>
<path fillRule="evenodd" d="M 16 1.54C 15.41 1.8 14.78 1.98 14.12 2.05 14.79 1.65 15.31 1 15.56 0.24 14.93 0.61 14.22 0.89 13.48 1.03 12.88 0.4 12.02-0 11.08-0 9.26-0 7.8 1.47 7.8 3.28 7.8 3.54 7.82 3.79 7.88 4.03 5.15 3.89 2.73 2.58 1.11 0.6 0.83 1.08 0.67 1.65 0.67 2.25 0.67 3.39 1.25 4.39 2.13 4.98 1.59 4.96 1.09 4.82 0.64 4.57 0.64 4.58 0.64 4.6 0.64 4.61 0.64 6.2 1.77 7.53 3.28 7.83 3 7.9 2.71 7.94 2.41 7.94 2.2 7.94 1.99 7.92 1.79 7.89 2.21 9.19 3.42 10.14 4.86 10.17 3.74 11.05 2.32 11.57 0.78 11.57 0.52 11.57 0.26 11.56-0 11.53 1.45 12.46 3.18 13 5.03 13 11.07 13 14.37 8 14.37 3.66 14.37 3.52 14.37 3.38 14.36 3.24 15 2.77 15.56 2.2 16 1.54Z" fill="rgb(255,255,255)" filter="url(#filter0)"/></svg>