<?xml version="1.0" encoding="utf-8"?>
<svg xmlns="http://www.w3.org/2000/svg"
	xmlns:xlink="http://www.w3.org/1999/xlink"
	width="17px" height="10px" viewBox="0 0 17 10">
<filter filterUnits="objectBoundingBox" x="0.00" y="0.00" width="100.00" height="100.00" id="filter0">
<feFlood flood-color="rgb(255,255,255)" result="coFloodOut1"/>
<feComposite in="coFloodOut1" in2="SourceAlpha" operator="in" result="coOverlay1"/>
<feBlend in="coOverlay1" in2="SourceGraphic" mode="normal" result="colorOverlay1"/>
</filter>
<path fillRule="evenodd" d="M 14.45 4.51C 14.45 4.51 14.45 2.8 14.45 2.8 14.45 2.8 13.21 2.8 13.21 2.8 13.21 2.8 13.21 4.51 13.21 4.51 13.21 4.51 11.44 4.51 11.44 4.51 11.44 4.51 11.44 5.73 11.44 5.73 11.44 5.73 13.21 5.73 13.21 5.73 13.21 5.73 13.21 7.49 13.21 7.49 13.21 7.49 14.45 7.49 14.45 7.49 14.45 7.49 14.45 5.73 14.45 5.73 14.45 5.73 16.18 5.73 16.18 5.73 16.18 5.73 16.18 4.51 16.18 4.51 16.18 4.51 14.45 4.51 14.45 4.51ZM 5.4 4.21C 5.4 4.21 5.4 6.07 5.4 6.07 5.4 6.07 7.32 6.07 8.11 6.07 7.68 7.27 7.02 7.93 5.4 7.93 3.75 7.93 2.47 6.68 2.47 5.14 2.47 3.6 3.75 2.36 5.4 2.36 6.27 2.36 6.83 2.64 7.34 3.04 7.76 2.65 7.72 2.6 8.77 1.67 7.88 0.92 6.7 0.45 5.4 0.45 2.63 0.45 0.38 2.55 0.38 5.14 0.38 7.73 2.63 9.83 5.4 9.83 9.54 9.83 10.55 6.46 10.21 4.21 10.21 4.21 5.4 4.21 5.4 4.21Z" fill="rgb(255,255,255)" opacity="0.87" filter="url(#filter0)"/></svg>