<?xml version="1.0" encoding="utf-8"?>
<svg xmlns="http://www.w3.org/2000/svg"
	xmlns:xlink="http://www.w3.org/1999/xlink"
	width="14px" height="14px" viewBox="0 0 14 14">
<filter filterUnits="objectBoundingBox" x="0.00" y="0.00" width="100.00" height="100.00" id="filter0">
<feFlood flood-color="rgb(255,255,255)" result="coFloodOut1"/>
<feComposite in="coFloodOut1" in2="SourceAlpha" operator="in" result="coOverlay1"/>
<feBlend in="coOverlay1" in2="SourceGraphic" mode="normal" result="colorOverlay1"/>
</filter>
<path fillRule="evenodd" d="M 7 8.51C 6.13 8.51 5.42 7.82 5.42 6.95 5.42 6.09 6.13 5.39 7 5.39 7.87 5.39 8.58 6.09 8.58 6.95 8.58 7.81 7.87 8.51 7 8.51ZM 7 3.82C 5.26 3.82 3.84 5.23 3.84 6.95 3.84 8.68 5.26 10.08 7 10.08 8.74 10.08 10.16 8.68 10.16 6.95 10.16 5.23 8.74 3.82 7 3.82ZM 10.16 4.61C 10.59 4.61 10.95 4.26 10.95 3.82 10.95 3.39 10.59 3.04 10.16 3.04 9.72 3.04 9.37 3.39 9.37 3.82 9.37 4.26 9.72 4.61 10.16 4.61ZM 11.7 9.26C 11.67 9.82 11.58 10.12 11.5 10.32 11.4 10.59 11.27 10.78 11.07 10.98 10.87 11.18 10.67 11.3 10.4 11.41 10.2 11.49 9.89 11.58 9.33 11.61 8.72 11.63 8.54 11.64 7 11.64 5.46 11.64 5.27 11.64 4.67 11.61 4.1 11.58 3.8 11.49 3.6 11.41 3.33 11.31 3.13 11.18 2.93 10.98 2.73 10.78 2.61 10.59 2.5 10.32 2.42 10.12 2.32 9.82 2.3 9.26 2.27 8.66 2.26 8.48 2.26 6.95 2.26 5.43 2.27 5.24 2.3 4.64 2.32 4.08 2.42 3.78 2.5 3.58 2.6 3.31 2.73 3.12 2.93 2.92 3.13 2.72 3.32 2.6 3.6 2.49 3.8 2.41 4.1 2.32 4.67 2.3 5.28 2.27 5.46 2.26 7 2.26 8.54 2.26 8.73 2.26 9.33 2.3 9.89 2.32 10.2 2.41 10.4 2.49 10.67 2.59 10.87 2.72 11.07 2.92 11.27 3.12 11.39 3.31 11.5 3.58 11.58 3.78 11.67 4.08 11.7 4.64 11.73 5.25 11.74 5.43 11.74 6.95 11.74 8.48 11.73 8.66 11.7 9.26ZM 12.98 2.85C 12.82 2.44 12.61 2.09 12.26 1.74 11.9 1.4 11.55 1.18 11.14 1.02 10.74 0.87 10.27 0.76 9.61 0.73 8.93 0.71 8.72 0.7 7 0.7 5.28 0.7 5.07 0.7 4.39 0.73 3.72 0.76 3.26 0.87 2.86 1.02 2.44 1.18 2.09 1.4 1.74 1.74 1.39 2.09 1.18 2.44 1.01 2.85 0.86 3.25 0.75 3.71 0.72 4.37 0.69 5.04 0.68 5.25 0.68 6.95 0.68 8.65 0.69 8.87 0.72 9.53 0.75 10.2 0.86 10.65 1.01 11.05 1.18 11.46 1.39 11.81 1.74 12.16 2.09 12.51 2.44 12.72 2.86 12.88 3.26 13.03 3.72 13.14 4.39 13.17 5.07 13.2 5.28 13.21 7 13.21 8.72 13.21 8.93 13.2 9.61 13.17 10.28 13.14 10.74 13.03 11.14 12.88 11.55 12.72 11.9 12.51 12.26 12.16 12.61 11.81 12.82 11.46 12.98 11.05 13.14 10.65 13.25 10.2 13.28 9.53 13.31 8.87 13.32 8.65 13.32 6.95 13.32 5.25 13.31 5.04 13.28 4.37 13.25 3.7 13.14 3.25 12.98 2.85Z" fill="rgb(255,255,255)" opacity="0.87" filter="url(#filter0)"/></svg>