<?xml version="1.0" encoding="utf-8"?>
<svg xmlns="http://www.w3.org/2000/svg"
	xmlns:xlink="http://www.w3.org/1999/xlink"
	width="14px" height="11px" viewBox="0 0 14 11">
<filter filterUnits="objectBoundingBox" x="0.00" y="0.00" width="100.00" height="100.00" id="filter0">
<feFlood flood-color="rgb(255,255,255)" result="coFloodOut1"/>
<feComposite in="coFloodOut1" in2="SourceAlpha" operator="in" result="coOverlay1"/>
<feBlend in="coOverlay1" in2="SourceGraphic" mode="normal" result="colorOverlay1"/>
</filter>
<path fillRule="evenodd" d="M 13.11 1.58C 12.64 1.79 12.14 1.93 11.62 1.99 12.15 1.67 12.56 1.17 12.76 0.57 12.26 0.86 11.7 1.08 11.11 1.19 10.64 0.69 9.97 0.38 9.22 0.38 7.79 0.38 6.63 1.53 6.63 2.95 6.63 3.15 6.65 3.34 6.69 3.53 4.54 3.43 2.63 2.4 1.35 0.85 1.13 1.23 1 1.67 1 2.14 1 3.03 1.46 3.82 2.15 4.28 1.73 4.26 1.33 4.15 0.98 3.96 0.98 3.97 0.98 3.98 0.98 3.99 0.98 5.23 1.87 6.27 3.06 6.51 2.84 6.56 2.61 6.6 2.38 6.6 2.21 6.6 2.05 6.58 1.89 6.55 2.22 7.57 3.18 8.31 4.31 8.33 3.42 9.02 2.31 9.43 1.09 9.43 0.88 9.43 0.68 9.42 0.47 9.39 1.62 10.12 2.98 10.55 4.45 10.55 9.21 10.55 11.82 6.64 11.82 3.25 11.82 3.13 11.82 3.02 11.81 2.91 12.32 2.55 12.76 2.1 13.11 1.58Z" fill="rgb(255,255,255)" opacity="0.87" filter="url(#filter0)"/></svg>