<?xml version="1.0" encoding="utf-8"?>
<svg xmlns="http://www.w3.org/2000/svg"
	xmlns:xlink="http://www.w3.org/1999/xlink"
	width="8px" height="14px" viewBox="0 0 8 14">
<filter filterUnits="objectBoundingBox" x="0.00" y="0.00" width="100.00" height="100.00" id="filter0">
<feFlood flood-color="rgb(255,255,255)" result="coFloodOut1"/>
<feComposite in="coFloodOut1" in2="SourceAlpha" operator="in" result="coOverlay1"/>
<feBlend in="coOverlay1" in2="SourceGraphic" mode="normal" result="colorOverlay1"/>
</filter>
<path fillRule="evenodd" d="M 5.02 13.3C 5.02 13.3 5.02 7.6 5.02 7.6 5.02 7.6 6.88 7.6 6.88 7.6 6.88 7.6 7.16 5.37 7.16 5.37 7.16 5.37 5.02 5.37 5.02 5.37 5.02 5.37 5.02 3.95 5.02 3.95 5.02 3.31 5.19 2.87 6.09 2.87 6.09 2.87 7.24 2.87 7.24 2.87 7.24 2.87 7.24 0.88 7.24 0.88 7.04 0.85 6.36 0.79 5.57 0.79 3.92 0.79 2.79 1.83 2.79 3.73 2.79 3.73 2.79 5.38 2.79 5.38 2.79 5.38 0.92 5.38 0.92 5.38 0.92 5.38 0.92 7.6 0.92 7.6 0.92 7.6 2.79 7.6 2.79 7.6 2.79 7.6 2.79 13.3 2.79 13.3 2.79 13.3 5.02 13.3 5.02 13.3Z" fill="rgb(255,255,255)" opacity="0.87" filter="url(#filter0)"/></svg>