<?xml version="1.0" encoding="utf-8"?>
<svg xmlns="http://www.w3.org/2000/svg"
	xmlns:xlink="http://www.w3.org/1999/xlink"
	width="7px" height="11px" viewBox="0 0 7 11">
<filter filterUnits="objectBoundingBox" x="0.00" y="0.00" width="100.00" height="91.67" id="filter0">
<feFlood flood-color="rgb(255,255,255)" result="coFloodOut1"/>
<feComposite in="coFloodOut1" in2="SourceAlpha" operator="in" result="coOverlay1"/>
<feBlend in="coOverlay1" in2="SourceGraphic" mode="normal" result="colorOverlay1"/>
</filter>
<path fillRule="evenodd" d="M 6.73 6.13C 6.73 6.13 1.65 10.75 1.65 10.75 1.27 11.09 0.66 11.09 0.28 10.75-0.09 10.41-0.09 9.85 0.28 9.51 0.28 9.51 4.68 5.51 4.68 5.51 4.68 5.51 0.28 1.51 0.28 1.51-0.09 1.17-0.09 0.61 0.28 0.27 0.66-0.07 1.27-0.07 1.65 0.27 1.65 0.27 6.73 4.89 6.73 4.89 7.1 5.23 7.1 5.79 6.73 6.13Z" fill="rgb(167,169,183)" filter="url(#filter0)"/></svg>