<?xml version="1.0" encoding="utf-8"?>
<svg xmlns="http://www.w3.org/2000/svg"
	xmlns:xlink="http://www.w3.org/1999/xlink"
	width="821px" height="301px" viewBox="0 0 821 301">
<g opacity="0.51"><path fillRule="evenodd" d="M 1.7 301.05C 1.7 301.05-0.01 300.01-0.01 300.01 0.02 299.97 1.46 297.62 4.41 293.35 4.41 293.35 6.06 294.48 6.06 294.48 3.16 298.67 1.72 301.02 1.7 301.05 1.7 301.05 1.7 301.05 1.7 301.05M 9.48 289.63C 9.48 289.63 7.86 288.46 7.86 288.46 9.25 286.52 10.82 284.37 12.59 282.02 12.59 282.02 14.19 283.22 14.19 283.22 12.56 285.39 10.98 287.54 9.48 289.63M 17.82 278.46C 17.82 278.46 16.24 277.24 16.24 277.24 17.78 275.25 19.43 273.15 21.2 270.94 21.2 270.94 22.76 272.19 22.76 272.19 21.08 274.29 19.42 276.4 17.82 278.46M 26.51 267.57C 26.51 267.57 24.96 266.3 24.96 266.3 26.59 264.32 28.31 262.26 30.1 260.15 30.1 260.15 31.63 261.44 31.63 261.44 29.84 263.55 28.13 265.59 26.51 267.57M 35.52 256.89C 35.52 256.89 34.01 255.58 34.01 255.58 35.7 253.63 37.45 251.64 39.27 249.59 39.27 249.59 40.77 250.92 40.77 250.92 38.95 252.96 37.21 254.95 35.52 256.89M 44.77 246.48C 44.77 246.48 43.29 245.13 43.29 245.13 45.04 243.21 46.85 241.25 48.71 239.25 48.71 239.25 50.18 240.62 50.18 240.62 48.32 242.61 46.52 244.56 44.77 246.48M 54.28 236.27C 54.28 236.27 52.83 234.89 52.83 234.89 54.64 233 56.49 231.08 58.39 229.13 58.39 229.13 59.82 230.53 59.82 230.53 57.93 232.47 56.08 234.38 54.28 236.27M 64.02 226.28C 64.02 226.28 62.61 224.87 62.61 224.87 64.46 223.01 66.35 221.13 68.29 219.23 68.29 219.23 69.69 220.66 69.69 220.66 67.76 222.55 65.87 224.43 64.02 226.28M 73.98 216.5C 73.98 216.5 72.6 215.06 72.6 215.06 74.49 213.24 76.42 211.4 78.4 209.55 78.4 209.55 79.77 211.01 79.77 211.01 77.8 212.85 75.87 214.68 73.98 216.5M 84.15 206.93C 84.15 206.93 82.8 205.46 82.8 205.46 84.73 203.68 86.7 201.88 88.71 200.07 88.71 200.07 90.05 201.56 90.05 201.56 88.05 203.36 86.08 205.15 84.15 206.93M 94.53 197.57C 94.53 197.57 93.21 196.07 93.21 196.07 95.18 194.32 97.19 192.57 99.23 190.81 99.23 190.81 100.54 192.32 100.54 192.32 98.5 194.08 96.5 195.83 94.53 197.57M 105.07 188.45C 105.07 188.45 103.77 186.92 103.77 186.92 105.79 185.21 107.83 183.5 109.9 181.78 109.9 181.78 111.18 183.32 111.18 183.32 109.11 185.04 107.07 186.74 105.07 188.45M 115.81 179.52C 115.81 179.52 114.55 177.97 114.55 177.97 116.6 176.3 118.67 174.63 120.78 172.95 120.78 172.95 122.03 174.51 122.03 174.51 119.93 176.19 117.85 177.86 115.81 179.52M 126.72 170.81C 126.72 170.81 125.49 169.24 125.49 169.24 127.57 167.61 129.68 165.98 131.82 164.35 131.82 164.35 133.03 165.94 133.03 165.94 130.9 167.56 128.8 169.19 126.72 170.81M 137.8 162.32C 137.8 162.32 136.6 160.72 136.6 160.72 138.72 159.13 140.86 157.54 143.03 155.95 143.03 155.95 144.22 157.56 144.22 157.56 142.05 159.15 139.91 160.74 137.8 162.32M 149.05 154.05C 149.05 154.05 147.88 152.43 147.88 152.43 150.02 150.88 152.19 149.33 154.39 147.79 154.39 147.79 155.54 149.42 155.54 149.42 153.35 150.96 151.19 152.51 149.05 154.05M 160.46 145.99C 160.46 145.99 159.32 144.34 159.32 144.34 161.5 142.84 163.7 141.33 165.92 139.83 165.92 139.83 167.04 141.48 167.04 141.48 164.82 142.98 162.63 144.49 160.46 145.99M 172 138.16C 172 138.16 170.9 136.49 170.9 136.49 173.1 135.03 175.33 133.56 177.59 132.1 177.59 132.1 178.68 133.78 178.68 133.78 176.43 135.24 174.2 136.7 172 138.16M 183.71 130.54C 183.71 130.54 182.64 128.85 182.64 128.85 184.87 127.43 187.12 126.01 189.4 124.59 189.4 124.59 190.46 126.29 190.46 126.29 188.19 127.7 185.94 129.12 183.71 130.54M 195.56 123.14C 195.56 123.14 194.52 121.44 194.52 121.44 196.78 120.05 199.06 118.68 201.36 117.3 201.36 117.3 202.39 119.02 202.39 119.02 200.09 120.39 197.81 121.76 195.56 123.14M 207.53 115.98C 207.53 115.98 206.52 114.25 206.52 114.25 208.81 112.91 211.12 111.57 213.45 110.24 213.45 110.24 214.44 111.97 214.44 111.97 212.12 113.3 209.81 114.64 207.53 115.98M 219.64 109.03C 219.64 109.03 218.66 107.28 218.66 107.28 220.97 105.99 223.31 104.69 225.66 103.4 225.66 103.4 226.62 105.16 226.62 105.16 224.27 106.44 221.95 107.73 219.64 109.03M 231.89 102.3C 231.89 102.3 230.94 100.54 230.94 100.54 233.27 99.28 235.63 98.03 238 96.79 238 96.79 238.93 98.56 238.93 98.56 236.56 99.8 234.22 101.05 231.89 102.3M 244.25 95.8C 244.25 95.8 243.33 94.02 243.33 94.02 245.69 92.81 248.07 91.6 250.46 90.4 250.46 90.4 251.36 92.19 251.36 92.19 248.97 93.39 246.6 94.59 244.25 95.8M 256.71 89.53C 256.71 89.53 255.83 87.74 255.83 87.74 258.22 86.56 260.62 85.4 263.04 84.24 263.04 84.24 263.91 86.04 263.91 86.04 261.49 87.2 259.09 88.36 256.71 89.53M 269.3 83.48C 269.3 83.48 268.45 81.67 268.45 81.67 270.85 80.54 273.28 79.42 275.72 78.3 275.72 78.3 276.55 80.12 276.55 80.12 274.12 81.24 271.7 82.36 269.3 83.48M 281.99 77.66C 281.99 77.66 281.17 75.84 281.17 75.84 283.6 74.75 286.04 73.67 288.5 72.6 288.5 72.6 289.3 74.43 289.3 74.43 286.84 75.5 284.41 76.58 281.99 77.66M 294.79 72.07C 294.79 72.07 294 70.23 294 70.23 296.44 69.18 298.9 68.15 301.37 67.12 301.37 67.12 302.14 68.97 302.14 68.97 299.67 69.99 297.22 71.03 294.79 72.07M 307.68 66.69C 307.68 66.69 306.93 64.84 306.93 64.84 309.39 63.84 311.86 62.85 314.35 61.87 314.35 61.87 315.08 63.73 315.08 63.73 312.6 64.71 310.13 65.7 307.68 66.69M 320.67 61.55C 320.67 61.55 319.95 59.68 319.95 59.68 322.42 58.73 324.91 57.78 327.41 56.84 327.41 56.84 328.12 58.71 328.12 58.71 325.62 59.65 323.14 60.59 320.67 61.55M 333.75 56.63C 333.75 56.63 333.06 54.75 333.06 54.75 335.55 53.84 338.05 52.93 340.56 52.04 340.56 52.04 341.23 53.92 341.23 53.92 338.72 54.82 336.23 55.72 333.75 56.63M 346.9 51.93C 346.9 51.93 346.25 50.04 346.25 50.04 348.75 49.17 351.26 48.31 353.8 47.46 353.8 47.46 354.43 49.36 354.43 49.36 351.91 50.21 349.4 51.06 346.9 51.93M 360.13 47.46C 360.13 47.46 359.51 45.56 359.51 45.56 362.02 44.74 364.56 43.92 367.1 43.11 367.1 43.11 367.71 45.01 367.71 45.01 365.17 45.82 362.64 46.64 360.13 47.46M 373.44 43.22C 373.44 43.22 372.84 41.3 372.84 41.3 375.37 40.52 377.92 39.74 380.48 38.98 380.48 38.98 381.05 40.89 381.05 40.89 378.5 41.66 375.96 42.43 373.44 43.22M 386.81 39.19C 386.81 39.19 386.25 37.27 386.25 37.27 388.79 36.53 391.35 35.79 393.92 35.07 393.92 35.07 394.46 36.99 394.46 36.99 391.9 37.72 389.35 38.45 386.81 39.19M 400.25 35.38C 400.25 35.38 399.72 33.46 399.72 33.46 402.27 32.75 404.84 32.06 407.43 31.38 407.43 31.38 407.94 33.31 407.94 33.31 405.36 33.99 402.8 34.69 400.25 35.38M 413.75 31.8C 413.75 31.8 413.25 29.86 413.25 29.86 415.82 29.2 418.4 28.55 420.99 27.91 420.99 27.91 421.47 29.85 421.47 29.85 418.88 30.49 416.31 31.14 413.75 31.8M 427.31 28.43C 427.31 28.43 426.84 26.48 426.84 26.48 429.42 25.87 432 25.26 434.6 24.66 434.6 24.66 435.05 26.61 435.05 26.61 432.46 27.21 429.88 27.81 427.31 28.43M 440.91 25.28C 440.91 25.28 440.48 23.33 440.48 23.33 443.06 22.75 445.66 22.18 448.27 21.62 448.27 21.62 448.69 23.58 448.69 23.58 446.08 24.14 443.49 24.7 440.91 25.28M 454.56 22.34C 454.56 22.34 454.16 20.38 454.16 20.38 456.75 19.85 459.36 19.32 461.98 18.8 461.98 18.8 462.37 20.76 462.37 20.76 459.76 21.28 457.15 21.8 454.56 22.34M 468.26 19.62C 468.26 19.62 467.88 17.65 467.88 17.65 470.49 17.15 473.11 16.67 475.74 16.19 475.74 16.19 476.1 18.15 476.1 18.15 473.47 18.63 470.86 19.12 468.26 19.62M 481.99 17.1C 481.99 17.1 481.65 15.13 481.65 15.13 484.26 14.67 486.89 14.22 489.54 13.78 489.54 13.78 489.86 15.76 489.86 15.76 487.23 16.19 484.6 16.64 481.99 17.1M 495.77 14.79C 495.77 14.79 495.45 12.82 495.45 12.82 498.08 12.4 500.72 11.99 503.37 11.59 503.37 11.59 503.67 13.56 503.67 13.56 501.02 13.96 498.39 14.37 495.77 14.79M 509.58 12.69C 509.58 12.69 509.29 10.71 509.29 10.71 511.93 10.33 514.58 9.96 517.24 9.59 517.24 9.59 517.51 11.58 517.51 11.58 514.85 11.94 512.21 12.31 509.58 12.69M 523.42 10.79C 523.42 10.79 523.16 8.81 523.16 8.81 525.8 8.46 528.45 8.13 531.11 7.81 531.11 7.81 531.35 9.79 531.35 9.79 528.7 10.12 526.05 10.45 523.42 10.79M 537.29 9.09C 537.29 9.09 537.06 7.1 537.06 7.1 539.7 6.8 542.35 6.51 545.01 6.22 545.01 6.22 545.22 8.21 545.22 8.21 542.57 8.49 539.92 8.79 537.29 9.09M 551.19 7.59C 551.19 7.59 550.99 5.6 550.99 5.6 553.63 5.33 556.28 5.08 558.94 4.83 558.94 4.83 559.12 6.82 559.12 6.82 556.47 7.07 553.83 7.32 551.19 7.59M 565.11 6.28C 565.11 6.28 564.94 4.29 564.94 4.29 567.57 4.06 570.22 3.84 572.88 3.63 572.88 3.63 573.04 5.63 573.04 5.63 570.39 5.84 567.74 6.06 565.11 6.28M 579.02 5.17C 579.02 5.17 578.88 3.18 578.88 3.18 581.53 2.99 584.19 2.8 586.86 2.63 586.86 2.63 586.99 4.63 586.99 4.63 584.32 4.8 581.67 4.98 579.02 5.17M 592.95 4.25C 592.95 4.25 592.84 2.26 592.84 2.26 595.5 2.1 598.17 1.95 600.85 1.81 600.85 1.81 600.95 3.81 600.95 3.81 598.28 3.95 595.61 4.1 592.95 4.25M 606.91 3.52C 606.91 3.52 606.82 1.52 606.82 1.52 609.48 1.4 612.15 1.29 614.83 1.18 614.83 1.18 614.9 3.18 614.9 3.18 612.23 3.29 609.56 3.4 606.91 3.52M 620.91 2.97C 620.91 2.97 620.85 0.97 620.85 0.97 623.52 0.89 626.18 0.83 628.84 0.78 628.84 0.78 628.87 2.78 628.87 2.78 626.22 2.83 623.57 2.89 620.91 2.97M 634.86 2.69C 634.86 2.69 634.84 0.69 634.84 0.69 637.52 0.67 640.18 0.66 642.84 0.67 642.84 0.67 642.84 2.67 642.84 2.67 640.19 2.66 637.53 2.67 634.86 2.69M 648.82 2.71C 648.82 2.71 648.84 0.71 648.84 0.71 651.51 0.74 654.18 0.78 656.84 0.84 656.84 0.84 656.8 2.84 656.8 2.84 654.14 2.78 651.48 2.74 648.82 2.71M 662.77 3.01C 662.77 3.01 662.83 1.01 662.83 1.01 665.51 1.09 668.17 1.2 670.83 1.31 670.83 1.31 670.74 3.31 670.74 3.31 668.09 3.19 665.44 3.09 662.77 3.01M 676.72 3.6C 676.72 3.6 676.83 1.6 676.83 1.6 679.49 1.74 682.15 1.89 684.81 2.06 684.81 2.06 684.68 4.06 684.68 4.06 682.03 3.89 679.38 3.74 676.72 3.6M 690.66 4.47C 690.66 4.47 690.8 2.47 690.8 2.47 693.47 2.67 696.12 2.87 698.78 3.1 698.78 3.1 698.61 5.09 698.61 5.09 695.97 4.87 693.31 4.66 690.66 4.47M 704.56 5.62C 704.56 5.62 704.75 3.62 704.75 3.62 707.41 3.87 710.07 4.13 712.71 4.41 712.71 4.41 712.51 6.4 712.51 6.4 709.87 6.12 707.22 5.86 704.56 5.62M 718.45 7.04C 718.45 7.04 718.68 5.05 718.68 5.05 721.33 5.35 723.98 5.66 726.62 5.99 726.62 5.99 726.37 7.97 726.37 7.97 723.74 7.65 721.1 7.34 718.45 7.04M 732.32 8.73C 732.32 8.73 732.58 6.75 732.58 6.75 735.23 7.1 737.87 7.46 740.5 7.84 740.5 7.84 740.22 9.82 740.22 9.82 737.59 9.44 734.96 9.08 732.32 8.73M 746.14 10.69C 746.14 10.69 746.44 8.71 746.44 8.71 749.08 9.11 751.72 9.52 754.34 9.95 754.34 9.95 754.02 11.92 754.02 11.92 751.4 11.5 748.77 11.09 746.14 10.69M 759.92 12.9C 759.92 12.9 760.26 10.93 760.26 10.93 762.89 11.38 765.52 11.84 768.13 12.32 768.13 12.32 767.78 14.28 767.78 14.28 765.17 13.81 762.55 13.35 759.92 12.9M 773.67 15.38C 773.67 15.38 774.04 13.41 774.04 13.41 776.67 13.91 779.29 14.42 781.89 14.94 781.89 14.94 781.5 16.9 781.5 16.9 778.9 16.38 776.29 15.87 773.67 15.38M 787.36 18.1C 787.36 18.1 787.77 16.14 787.77 16.14 790.39 16.68 793 17.24 795.59 17.81 795.59 17.81 795.17 19.76 795.17 19.76 792.58 19.2 789.97 18.64 787.36 18.1M 801.01 21.07C 801.01 21.07 801.45 19.12 801.45 19.12 804.06 19.71 806.65 20.31 809.24 20.92 809.24 20.92 808.78 22.87 808.78 22.87 806.2 22.26 803.61 21.66 801.01 21.07M 814.6 24.27C 814.6 24.27 815.08 22.33 815.08 22.33 817.68 22.97 820.26 23.62 822.84 24.28 822.84 24.28 822.34 26.22 822.34 26.22 819.77 25.56 817.19 24.91 814.6 24.27M 828.13 27.72C 828.13 27.72 828.64 25.78 828.64 25.78 831.23 26.47 833.8 27.16 836.36 27.86 836.36 27.86 835.84 29.79 835.84 29.79 833.28 29.09 830.71 28.4 828.13 27.72M 841.61 31.4C 841.61 31.4 842.15 29.47 842.15 29.47 844.73 30.2 847.29 30.93 849.84 31.68 849.84 31.68 849.28 33.6 849.28 33.6 846.74 32.86 844.18 32.12 841.61 31.4M 855.01 35.3C 855.01 35.3 855.58 33.38 855.58 33.38 858.15 34.15 860.7 34.93 863.24 35.72 863.24 35.72 862.65 37.63 862.65 37.63 860.12 36.84 857.57 36.07 855.01 35.3M 868.36 39.43C 868.36 39.43 868.97 37.52 868.97 37.52 871.52 38.33 874.06 39.15 876.58 39.98 876.58 39.98 875.96 41.88 875.96 41.88 873.44 41.05 870.91 40.24 868.36 39.43M 881.63 43.76C 881.63 43.76 882.27 41.87 882.27 41.87 884.81 42.72 887.33 43.59 889.84 44.45 889.84 44.45 889.19 46.34 889.19 46.34 886.69 45.48 884.17 44.62 881.63 43.76M 894.84 48.33C 894.84 48.33 895.51 46.44 895.51 46.44 898.04 47.34 900.55 48.24 903.04 49.14 903.04 49.14 902.36 51.02 902.36 51.02 899.87 50.12 897.37 49.22 894.84 48.33M 907.96 53.09C 907.96 53.09 908.66 51.21 908.66 51.21 911.18 52.15 913.67 53.09 916.15 54.04 916.15 54.04 915.43 55.9 915.43 55.9 912.96 54.96 910.47 54.02 907.96 53.09M 921.03 58.06C 921.03 58.06 921.75 56.2 921.75 56.2 924.26 57.18 926.74 58.16 929.2 59.14 929.2 59.14 928.45 61 928.45 61 926 60.02 923.52 59.04 921.03 58.06M 934 63.24C 934 63.24 934.76 61.39 934.76 61.39 937.24 62.4 939.71 63.42 942.15 64.44 942.15 64.44 941.38 66.28 941.38 66.28 938.94 65.27 936.48 64.25 934 63.24M 946.89 68.61C 946.89 68.61 947.67 66.77 947.67 66.77 950.15 67.82 952.6 68.88 955.02 69.93 955.02 69.93 954.22 71.77 954.22 71.77 951.8 70.71 949.36 69.66 946.89 68.61M 959.71 74.18C 959.71 74.18 960.52 72.35 960.52 72.35 962.98 73.45 965.42 74.54 967.82 75.63 967.82 75.63 966.99 77.45 966.99 77.45 964.59 76.36 962.17 75.27 959.71 74.18M 972.44 79.95C 972.44 79.95 973.28 78.13 973.28 78.13 975.72 79.26 978.14 80.39 980.53 81.52 980.53 81.52 979.67 83.32 979.67 83.32 977.29 82.2 974.88 81.07 972.44 79.95M 985.07 85.9C 985.07 85.9 985.94 84.09 985.94 84.09 988.37 85.26 990.77 86.43 993.14 87.59 993.14 87.59 992.26 89.38 992.26 89.38 989.9 88.22 987.5 87.06 985.07 85.9M 997.62 92.04C 997.62 92.04 998.51 90.25 998.51 90.25 1000.93 91.45 1003.31 92.65 1005.66 93.85 1005.66 93.85 1004.75 95.63 1004.75 95.63 1002.41 94.44 1000.03 93.24 997.62 92.04M 1010.07 98.36C 1010.07 98.36 1010.99 96.59 1010.99 96.59 1013.4 97.83 1015.77 99.07 1018.09 100.3 1018.09 100.3 1017.15 102.07 1017.15 102.07 1014.84 100.84 1012.47 99.61 1010.07 98.36M 1022.44 104.88C 1022.44 104.88 1023.38 103.12 1023.38 103.12 1025.78 104.41 1028.12 105.68 1030.42 106.94 1030.42 106.94 1029.46 108.69 1029.46 108.69 1027.17 107.43 1024.82 106.16 1022.44 104.88M 1034.7 111.59C 1034.7 111.59 1035.67 109.84 1035.67 109.84 1038.05 111.16 1040.37 112.47 1042.64 113.76 1042.64 113.76 1041.65 115.5 1041.65 115.5 1039.39 114.21 1037.07 112.91 1034.7 111.59M 1046.84 118.47C 1046.84 118.47 1047.84 116.74 1047.84 116.74 1050.22 118.11 1052.52 119.46 1054.76 120.77 1054.76 120.77 1053.75 122.5 1053.75 122.5 1051.51 121.18 1049.21 119.84 1046.84 118.47M 1058.9 125.56C 1058.9 125.56 1059.92 123.84 1059.92 123.84 1062.29 125.26 1064.57 126.63 1066.75 127.97 1066.75 127.97 1065.71 129.68 1065.71 129.68 1063.53 128.34 1061.26 126.97 1058.9 125.56M 1070.82 132.83C 1070.82 132.83 1071.88 131.13 1071.88 131.13 1074.26 132.61 1076.52 134.03 1078.65 135.38 1078.65 135.38 1077.58 137.07 1077.58 137.07 1075.45 135.72 1073.2 134.31 1070.82 132.83M 1082.6 140.29C 1082.6 140.29 1083.69 138.61 1083.69 138.61 1086.14 140.19 1088.38 141.66 1090.4 143 1090.4 143 1089.3 144.66 1089.3 144.66 1087.28 143.33 1085.05 141.87 1082.6 140.29M 1094.28 147.98C 1094.28 147.98 1095.4 146.32 1095.4 146.32 1097.03 147.42 1098.44 148.37 1099.61 149.16 1100.56 149.81 1101.36 150.35 1102.01 150.78 1102.01 150.78 1100.9 152.44 1100.9 152.44 1100.25 152.01 1099.44 151.47 1098.49 150.82 1097.32 150.03 1095.91 149.08 1094.28 147.98" fill="rgb(255,255,255)" opacity="0.18"/></g></svg>